<svg height="512" viewBox="0 0 512 512" width="512" xmlns="http://www.w3.org/2000/svg"><g id="flat"><path d="m397.823 82.177-36.214 3.292a72.145 72.145 0 0 0 -44.48 20.833 72.14 72.14 0 0 0 -21.129 51.011v26.687h26.687a72.14 72.14 0 0 0 51.013-21.129 72.145 72.145 0 0 0 20.833-44.48z" fill="#04957c"/><path d="m396.69 94.62-38.01 38.01 31.92 3.55c-.76 2.13-1.62 4.23-2.58 6.28a72.33 72.33 0 0 1 -5.02 8.97l-38.81-4.31-36.88 36.88h-11.31v-26.69a72.05 72.05 0 0 1 15.46-44.62 69.807 69.807 0 0 1 5.67-6.39 72.377 72.377 0 0 1 7.63-6.62 7.945 7.945 0 0 1 1.82 4.24l3.82 34.37 54.98-54.98 12.44-1.13z" fill="#04957c"/><path d="m396.69 94.62-38.01 38.01 31.92 3.55c-.76 2.13-1.62 4.23-2.58 6.28a72.33 72.33 0 0 1 -5.02 8.97l-38.81-4.31-36.88 36.88a8 8 0 1 1 -11.31-11.31l19.91-19.91-4.45-40.09a69.807 69.807 0 0 1 5.67-6.39 72.377 72.377 0 0 1 7.63-6.62 7.945 7.945 0 0 1 1.82 4.24l3.82 34.37 54.98-54.98 12.44-1.13z" fill="#03816b"/><path d="m296 40-23.279 27.935a72.141 72.141 0 0 0 -16.721 46.183 72.14 72.14 0 0 0 21.129 51.011l18.871 18.871 18.871-18.871a72.14 72.14 0 0 0 21.129-51.011 72.141 72.141 0 0 0 -16.721-46.183z" fill="#06c7a6"/><path d="m334.49 99.45-30.49 24.4v52.15l-8 8-8-8v-28.15l-31.49-25.2a71.156 71.156 0 0 1 -.51-8.53 72.449 72.449 0 0 1 .94-11.61l31.06 24.84v-77.75l8-9.6 8 9.6v53.75l25.08-20.06q1.455 3.075 2.61 6.27a71.911 71.911 0 0 1 2.8 9.89z" fill="#06c7a6"/><path d="m334.49 99.45-30.49 24.4v60.15a8 8 0 0 1 -16 0v-36.15l-31.49-25.2a71.156 71.156 0 0 1 -.51-8.53 72.449 72.449 0 0 1 .94-11.61l31.06 24.84v-77.75l8-9.6 8 9.6v53.75l25.08-20.06q1.455 3.075 2.61 6.27a71.911 71.911 0 0 1 2.8 9.89z" fill="#04957c"/><path d="m152 208a8 8 0 0 1 -8-8v-80a8 8 0 0 1 16 0v80a8 8 0 0 1 -8 8z" fill="#8f563b"/><path d="m192 200a8 8 0 0 1 -8-8v-56a8 8 0 0 1 16 0v56a8 8 0 0 1 -8 8z" fill="#8f563b"/><path d="m144 184h200v52.768a54 54 0 0 0 4.478 21.532l17.336 39.87a6 6 0 0 1 -3.721 7.8l-18.093 6.03-6.93 83.163a14 14 0 0 1 -13.952 12.837h-75.118l-3.42 5.7a144.408 144.408 0 0 0 -20.58 74.3l-120-32 28.089-67.413a85.733 85.733 0 0 0 2.8-58.187l-11.3-36.74a105.2 105.2 0 0 1 4.411-73.667z" fill="#f6bb92"/><g fill="#d6a27f"><path d="m280 416h-32a8 8 0 0 1 -6.4-3.2l-24-32a8 8 0 0 1 12.8-9.6l21.6 28.8h28a8 8 0 0 1 0 16z"/><path d="m200 320h-8.173a26.722 26.722 0 0 1 -19.018-7.877l-20.932-20.933a26.715 26.715 0 0 1 -7.877-19.017v-18.553a26.9 26.9 0 0 1 45.915-19.02l7.742 7.742a8 8 0 0 1 -11.314 11.314l-7.742-7.742a10.9 10.9 0 0 0 -18.601 7.706v18.553a10.822 10.822 0 0 0 3.191 7.7l20.932 20.933a10.829 10.829 0 0 0 7.7 3.19h8.177a8 8 0 0 1 0 16z"/><path d="m336 368h-6.111a84.213 84.213 0 0 1 -37.467-8.845 8 8 0 0 1 7.156-14.31 68.138 68.138 0 0 0 30.311 7.155h6.111a8 8 0 0 1 0 16z"/></g><circle cx="304" cy="248" fill="#6e3f0d" r="16"/><path d="m152 64-15.179 45.537a15.992 15.992 0 0 0 -.821 5.063v5.4a16 16 0 0 0 16 16 16 16 0 0 0 16-16v-5.4a15.992 15.992 0 0 0 -.821-5.059z" fill="#03816b"/><path d="m192 80-15.179 45.537a15.992 15.992 0 0 0 -.821 5.063v5.4a16 16 0 0 0 16 16 16 16 0 0 0 16-16v-5.4a15.992 15.992 0 0 0 -.821-5.059z" fill="#06c7a6"/><path d="m248 168v16h-32v-16l16-16z" fill="#8ed2ff"/><path d="m240 168v16h-24v-16l12-12z" fill="#bce1ff"/><path d="m240 40h-8v-8h-16v8h-8v16h8v8h16v-8h8z" fill="#fbb540"/><path d="m88 48h16v16h-16z" fill="#fbb540"/><path d="m88 80h16v16h-16z" fill="#ea9d2d"/><path d="m72 64h16v16h-16z" fill="#ea9d2d"/><path d="m104 64h16v16h-16z" fill="#fbb540"/><path d="m341.945 47.129h16v16h-16z" fill="#99d8aa"/><path d="m360 16h16v16h-16z" fill="#99d8aa"/><path d="m384 40h16v16h-16z" fill="#99d8aa"/></g></svg>